<svg id="Camada_1" data-name="Camada 1" xmlns="http://www.w3.org/2000/svg" xmlns:xlink="http://www.w3.org/1999/xlink" viewBox="0 0 1920 1791.72"><defs><style>.cls-1{fill:#fff;}.cls-2{fill:#abbe2e;}.cls-3{fill:url(#Gradiente_sem_nome_12);}</style><linearGradient id="Gradiente_sem_nome_12" x1="515.69" y1="694.44" x2="1404.31" y2="694.44" gradientUnits="userSpaceOnUse"><stop offset="0" stop-color="#abc463"/><stop offset="1" stop-color="#abbe2e"/></linearGradient></defs><path class="cls-1" d="M767.68,1495.79q0,15.39-8.35,23.52t-24,8.14H718.09v-62.13h19q14.49,0,22.52,8T767.68,1495.79Zm-7.65.26q0-12.16-6.09-18.32t-18.13-6.16h-10.5v49.63h8.8q12.92,0,19.42-6.35T760,1496.05Z"/><path class="cls-1" d="M800.15,1528.3q-10.33,0-16.3-6.29t-6-17.46q0-11.27,5.55-17.9t14.89-6.62q8.76,0,13.85,5.75t5.11,15.2v4.46H785.19q.21,8.2,4.14,12.45c2.62,2.83,6.32,4.25,11.07,4.25a37.47,37.47,0,0,0,14.88-3.15v6.29a37.58,37.58,0,0,1-7.08,2.32A39.56,39.56,0,0,1,800.15,1528.3Zm-1.92-42.37a11.52,11.52,0,0,0-8.94,3.66c-2.22,2.43-3.53,5.81-3.93,10.11h24.35q0-6.67-3-10.22T798.23,1485.93Z"/><path class="cls-1" d="M859.35,1514.74a11.66,11.66,0,0,1-4.85,10q-4.85,3.52-13.6,3.53-9.27,0-14.45-2.93v-6.55a34.44,34.44,0,0,0,7.21,2.68,30.09,30.09,0,0,0,7.41,1c3.68,0,6.52-.59,8.5-1.76a6.07,6.07,0,0,0,.62-10q-2.37-1.93-9.2-4.57a50.52,50.52,0,0,1-9.25-4.23,12.73,12.73,0,0,1-4.08-4.1,10.72,10.72,0,0,1-1.33-5.48,10.44,10.44,0,0,1,4.63-9q4.62-3.3,12.7-3.29a37.19,37.19,0,0,1,14.71,3.06l-2.51,5.73a33.86,33.86,0,0,0-12.71-2.89q-5,0-7.56,1.58a4.85,4.85,0,0,0-2.55,4.33,5.27,5.27,0,0,0,1,3.19,9.25,9.25,0,0,0,3.08,2.5,67.79,67.79,0,0,0,8.16,3.45q8.28,3,11.19,6.07A10.74,10.74,0,0,1,859.35,1514.74Z"/><path class="cls-1" d="M890.49,1528.3q-10.32,0-16.29-6.29t-6-17.46q0-11.27,5.54-17.9t14.9-6.62q8.75,0,13.85,5.75t5.1,15.2v4.46H875.54q.21,8.2,4.14,12.45t11.07,4.25a37.46,37.46,0,0,0,14.87-3.15v6.29a37.27,37.27,0,0,1-7.07,2.32A39.67,39.67,0,0,1,890.49,1528.3Zm-1.91-42.37a11.53,11.53,0,0,0-9,3.66c-2.22,2.43-3.53,5.81-3.93,10.11h24.35q0-6.67-3-10.22T888.58,1485.93Z"/><path class="cls-1" d="M979,1527.45v-30.3q0-5.57-2.38-8.35t-7.39-2.78q-6.6,0-9.74,3.78t-3.14,11.64v26h-7.05v-30.3c0-3.71-.8-6.49-2.38-8.35s-4.07-2.78-7.44-2.78q-6.63,0-9.71,4t-3.08,13v24.43h-7.05v-46.57h5.73l1.15,6.37h.34a13.81,13.81,0,0,1,5.63-5.31,17.12,17.12,0,0,1,8.14-1.91q10.92,0,14.28,7.9h.34a14.82,14.82,0,0,1,6-5.78,18.68,18.68,0,0,1,9-2.12q7.91,0,11.84,4t3.92,13v30.38Z"/><path class="cls-1" d="M1022.27,1528.3a20.16,20.16,0,0,1-8.31-1.68,15.7,15.7,0,0,1-6.31-5.16h-.51a62.48,62.48,0,0,1,.51,7.73v19.17h-7v-67.48h5.74l1,6.37h.34a16.56,16.56,0,0,1,6.33-5.53,19.34,19.34,0,0,1,8.29-1.69q9.27,0,14.3,6.33t5,17.76q0,11.48-5.12,17.83T1022.27,1528.3Zm-1-42.28q-7.14,0-10.33,4t-3.27,12.58v1.57q0,9.81,3.27,14.05t10.5,4.22a10.91,10.91,0,0,0,9.46-4.88q3.42-4.89,3.42-13.48t-3.42-13.36A11.26,11.26,0,0,0,1021.25,1486Z"/><path class="cls-1" d="M1073.61,1528.3q-10.33,0-16.3-6.29t-6-17.46q0-11.27,5.55-17.9t14.89-6.62q8.76,0,13.85,5.75t5.1,15.2v4.46h-32.08q.21,8.2,4.14,12.45t11.07,4.25a37.5,37.5,0,0,0,14.88-3.15v6.29a37.58,37.58,0,0,1-7.08,2.32A39.63,39.63,0,0,1,1073.61,1528.3Zm-1.92-42.37a11.49,11.49,0,0,0-8.94,3.66c-2.22,2.43-3.53,5.81-3.93,10.11h24.35q0-6.67-3-10.22T1071.69,1485.93Z"/><path class="cls-1" d="M1134.63,1527.45v-30.13c0-3.79-.86-6.63-2.59-8.5s-4.43-2.8-8.12-2.8q-7.31,0-10.71,4t-3.4,13v24.43h-7v-46.57h5.74l1.14,6.37h.34a14.44,14.44,0,0,1,6.08-5.33,19.76,19.76,0,0,1,8.71-1.89q8.42,0,12.67,4t4.24,13v30.38Z"/><path class="cls-1" d="M1188.05,1527.45v-30.13c0-3.79-.87-6.63-2.59-8.5s-4.44-2.8-8.12-2.8q-7.35,0-10.73,4t-3.38,13.09v24.35h-7v-66.12h7v20a43,43,0,0,1-.34,6h.42a14.49,14.49,0,0,1,5.93-5.29,19.42,19.42,0,0,1,8.78-1.93q8.54,0,12.81,4.06t4.27,12.9v30.38Z"/><path class="cls-1" d="M1249.79,1504.12q0,11.39-5.73,17.79t-15.85,6.39a21.05,21.05,0,0,1-11.1-2.93,19.31,19.31,0,0,1-7.47-8.42,29.25,29.25,0,0,1-2.64-12.83q0-11.38,5.69-17.74t15.81-6.35q9.78,0,15.53,6.5T1249.79,1504.12Zm-35.48,0q0,8.93,3.57,13.6t10.49,4.67q6.93,0,10.52-4.65t3.59-13.62q0-8.88-3.59-13.49t-10.6-4.61q-6.93,0-10.46,4.54T1214.31,1504.12Z"/><path class="cls-1" d="M1320.46,1527.45h-34.63v-62.13h34.63v6.42h-27.41v20h25.75v6.38h-25.75V1521h27.41Z"/><path class="cls-1" d="M1363.21,1514.74a11.66,11.66,0,0,1-4.84,10q-4.84,3.52-13.6,3.53-9.27,0-14.45-2.93v-6.55a34.57,34.57,0,0,0,7.2,2.68,30.23,30.23,0,0,0,7.42,1q5.52,0,8.5-1.76a6.07,6.07,0,0,0,.61-10q-2.35-1.93-9.2-4.57a50.68,50.68,0,0,1-9.24-4.23,12.54,12.54,0,0,1-4.08-4.1,10.72,10.72,0,0,1-1.34-5.48,10.44,10.44,0,0,1,4.64-9q4.62-3.3,12.7-3.29a37.15,37.15,0,0,1,14.7,3.06l-2.5,5.73a33.9,33.9,0,0,0-12.71-2.89c-3.34,0-5.87.53-7.56,1.58a4.85,4.85,0,0,0-2.55,4.33,5.33,5.33,0,0,0,.95,3.19,9.46,9.46,0,0,0,3.08,2.5,69.31,69.31,0,0,0,8.16,3.45q8.3,3,11.2,6.07A10.73,10.73,0,0,1,1363.21,1514.74Z"/><path class="cls-1" d="M1396.36,1528.3a20.16,20.16,0,0,1-8.31-1.68,15.7,15.7,0,0,1-6.31-5.16h-.51a62.48,62.48,0,0,1,.51,7.73v19.17h-7v-67.48h5.73l1,6.37h.34a16.56,16.56,0,0,1,6.33-5.53,19.3,19.3,0,0,1,8.29-1.69q9.27,0,14.3,6.33t5,17.76q0,11.48-5.12,17.83T1396.36,1528.3Zm-1-42.28q-7.14,0-10.33,4t-3.27,12.58v1.57q0,9.81,3.27,14.05t10.5,4.22a10.9,10.9,0,0,0,9.45-4.88q3.42-4.89,3.43-13.48t-3.43-13.36A11.24,11.24,0,0,0,1395.34,1486Z"/><path class="cls-1" d="M1468.22,1504.12q0,11.39-5.74,17.79t-15.85,6.39a21,21,0,0,1-11.09-2.93,19.39,19.39,0,0,1-7.48-8.42,29.25,29.25,0,0,1-2.64-12.83q0-11.38,5.7-17.74t15.81-6.35q9.77,0,15.53,6.5T1468.22,1504.12Zm-35.48,0q0,8.93,3.56,13.6t10.5,4.67q6.93,0,10.52-4.65t3.59-13.62q0-8.88-3.59-13.49t-10.61-4.61q-6.92,0-10.45,4.54T1432.74,1504.12Z"/><path class="cls-1" d="M1501.83,1480a27.67,27.67,0,0,1,5.57.51l-1,6.54a23.78,23.78,0,0,0-5.1-.64,12.38,12.38,0,0,0-9.66,4.59,16.72,16.72,0,0,0-4,11.43v25h-7.06v-46.57h5.83l.8,8.62h.34a20.44,20.44,0,0,1,6.25-7A14.08,14.08,0,0,1,1501.83,1480Z"/><path class="cls-1" d="M1531.15,1522.48a25.52,25.52,0,0,0,6.38-.85v5.4a13.26,13.26,0,0,1-3.38.91,25.53,25.53,0,0,1-4,.36q-13.52,0-13.51-14.24v-27.7H1510V1483l6.67-2.93,3-10h4.08v10.8h13.52v5.48h-13.52v27.41a9.46,9.46,0,0,0,2,6.46A7,7,0,0,0,1531.15,1522.48Z"/><path class="cls-1" d="M1546.24,1468.25a4.68,4.68,0,0,1,1.19-3.54,4.4,4.4,0,0,1,5.91,0,4.59,4.59,0,0,1,1.23,3.52,4.68,4.68,0,0,1-1.23,3.55,4.13,4.13,0,0,1-2.94,1.17,4.07,4.07,0,0,1-3-1.17A4.79,4.79,0,0,1,1546.24,1468.25Zm7.65,59.2h-7.06v-46.57h7.06Z"/><path class="cls-1" d="M1579.05,1527.45l-17.68-46.57h7.56l10,27.62a129.86,129.86,0,0,1,4,12.58h.35a93.77,93.77,0,0,1,3-9.33q2.48-7.08,11.15-30.87H1605l-17.68,46.57Z"/><path class="cls-1" d="M1652.65,1504.12q0,11.39-5.74,17.79t-15.85,6.39a21,21,0,0,1-11.09-2.93,19.39,19.39,0,0,1-7.48-8.42,29.25,29.25,0,0,1-2.63-12.83q0-11.38,5.69-17.74t15.81-6.35q9.77,0,15.53,6.5T1652.65,1504.12Zm-35.48,0q0,8.93,3.56,13.6t10.5,4.67q6.93,0,10.52-4.65t3.59-13.62q0-8.88-3.59-13.49t-10.61-4.61q-6.92,0-10.45,4.54T1617.17,1504.12Z"/><path class="cls-1" d="M487,1422.5v31.77c0,6.75-4.34,10.11-12.76,10.11s-12.76-3.36-12.76-10.11V1343.8q0-38.28,62.1-38.27H572q62.1,0,62.1,38.27v40.67c0,25.28-20.7,38-62.1,38Zm0-19.49h85.68c23.83,0,35.62-6.26,35.62-18.29v-41.16c0-12.28-11.79-18.3-35.62-18.3H522.66c-23.59,0-35.62,6-35.62,18.3Z"/><path class="cls-1" d="M716.42,1422.5c-41.64,0-62.34-12.75-62.34-38V1343.8c0-25.52,20.7-38.27,62.34-38.27h46.45c41.64,0,62.34,12.75,62.34,38.27v40.67c0,25.28-20.7,38-62.34,38Zm83-78.94c0-12.28-12-18.3-35.87-18.3H715.46c-23.59,0-35.63,6-35.63,18.3v41.16c0,12,12,18.29,35.63,18.29h48.13c23.83,0,35.87-6.26,35.87-18.29Z"/><path class="cls-1" d="M845.67,1343.8q0-38.28,62.1-38.27h18.54c8.18,0,12.27,3.36,12.27,9.86s-4.09,9.87-12.27,9.87h-19.5c-23.59,0-35.62,6-35.62,18.06v70.28c0,6.74-4.34,10.11-12.76,10.11s-12.76-3.61-12.76-10.11Z"/><path class="cls-1" d="M991.29,1325.26v88.34c0,6.74-4.33,10.11-12.51,10.11q-13,0-13-10.11v-88.34h-9.87c-7.7,0-11.79-3.13-11.79-9.38s4.09-9.39,11.79-9.39h9.87v-22.15c0-6.49,4.09-10.1,12.51-10.1,8.67,0,13,3.61,13,10.1v22.15h41.4c7.94,0,12,3.13,12,9.39s-4.1,9.38-12,9.38Z"/><path class="cls-2" d="M1070.72,1422.5c-7.46,0-11.55-2.88-11.55-8.42V1264.37c0-5.54,3.85-8.43,11.07-8.43h113.13c49.82,0,74.85,15.41,74.85,46.46v73.65c0,31-25,46.45-74.85,46.45Zm161.51-119.38c0-18.29-15.89-27.44-47.9-27.44h-97.24c-1.2,0-1.93.48-1.93,1.45v124.19c0,1,.73,1.45,1.93,1.45h97c32.25,0,48.14-9.15,48.14-27.44Z"/><path class="cls-2" d="M1350.41,1422.5c-46.94,0-70.52-15.4-70.52-46.21v-74.86q0-45.48,69.32-45.49h34.41c8,0,12,3.37,12,9.87s-4.09,9.87-12,9.87h-33.93c-29.13,0-43.81,8.66-43.81,26.24v27.2h143.45q11.57,0,11.56,9.38t-11.56,9.39H1305.88v27.68c0,18,14.92,27.2,45.73,27.2h97.72c8.19,0,12.28,3.37,12.28,9.87s-4.09,9.86-12.28,9.86Z"/><path class="cls-2" d="M1657.53,1384.23c0,25.52-24.55,38.27-73.17,38.27h-97.72c-7.94,0-12.28-3.37-12.28-9.86s4.34-9.87,12.28-9.87h97.72c31.29,0,46.94-6.74,46.94-20V1365.7c0-13-14.69-19.5-44.53-19.5h-45.49c-43.81,0-65.71-12-65.71-35.62V1293c0-24.55,22.62-37.07,67.39-37.07h27c7.94,0,12,3.37,12,9.87s-4.09,9.87-12,9.87H1543.2c-27.68,0-41.64,6-41.64,18.29v14.92c0,12,13.24,17.82,39.48,17.82h43.8c48.38,0,72.69,12.75,72.69,38Z"/><path class="cls-1" d="M445.64,1384.23c0,25.52-24.55,38.27-73.18,38.27H274.75c-7.95,0-12.28-3.37-12.28-9.86s4.33-9.87,12.28-9.87h97.71c31.3,0,46.94-6.74,46.94-20V1365.7c0-13-14.68-19.5-44.53-19.5H329.38c-43.81,0-65.71-12-65.71-35.62V1293c0-24.55,22.63-37.07,67.4-37.07H358c8,0,12,3.37,12,9.87s-4.09,9.87-12,9.87H331.31c-27.68,0-41.64,6-41.64,18.29v14.92c0,12,13.23,17.82,39.47,17.82H373c48.38,0,72.69,12.75,72.69,38Z"/><path class="cls-1" d="M433.36,1255.94H335.64c-22.7,0-40,2.85-52.16,8.42a34.48,34.48,0,0,1-4.54,7,45.74,45.74,0,0,0-3.22,4.65c.81,9.58,2,19.1,3.34,28.61l3.29.2c-1.8-14.85,6.93-31.23,26.21-31.23a27.51,27.51,0,0,1,12.24,2.69c4.49-.4,9.41-.62,14.84-.62h97.72c7.94,0,12.28-3.37,12.28-9.87S441.3,1255.94,433.36,1255.94Z"/><path class="cls-3" d="M1239.26,1044.61c-.53-2.46-1.39-4.47-1.31-6.45.3-7.18-3.65-11.63-9-15.23-10.06-6.76-20.26-13.31-30.2-20.24-4.39-3.07-8.41-3.33-13-.74-6.29,3.55-12.65,7-19,10.28-4,2.06-5.45,5-4.48,9.49,2.84,13.22,5.36,26.51,8.45,39.67.68,2.91,2.88,5.7,5,8,3.77,4,8,7.61,12.09,11.42-141.31,93.78-375.68,95-532.38-58.52C730.12,918,804.92,813.72,880.6,708.19c-14.55-2.17-28-4.66-41.52-6.08-18.59-2-37.24-2.07-55.61,2.28-15.9,3.76-29.84,11.24-40.13,24.38q-46.83,59.87-93.32,120c-21.06,27.23-41.88,54.65-62.81,82-.64.84-1.4,1.59-2.12,2.41-76.21-105.47-113.21-324.71,14.83-502.53C738,238.85,996,186.39,1192.52,310.53c210.67,133.1,253.71,384.83,175.15,562.1L1343.76,854c-8.32,5.31-9.12,7.91-6,16.87q5.61,16.08,10.8,32.3c2.64,8.3.79,13.71-6.68,17.92-9.62,5.42-19.45,10.48-29.4,15.24-4,1.93-5.75,4.62-6,8.89-.48,9-.74,18.07-1.79,27-.48,4.09-1.69,8.76-4.16,11.86a393.66,393.66,0,0,1-58.48,59.09A18.13,18.13,0,0,1,1239.26,1044.61ZM955.57,845.26c-34.71,68.4-76.25,131.62-114.38,197.32a15.29,15.29,0,0,0,3.25.94c31.77-.78,63.55-1.29,95.3-2.61,9.56-.4,19.1-3.7,25.84-11.05,10.8-11.77,22.23-23.31,30.93-36.61,42.6-65.15,84.38-130.85,126.44-196.37,1-1.51,1.74-3.15,2.77-5-3.44-1.29-6.19-2.37-9-3.35q-101.18-35.61-202.31-71.32c-5.47-1.94-8.63-.52-11.78,3.95-12.3,17.47-24.84,34.78-37.26,52.16-8.17,11.44-16.29,22.91-25,35.1Zm45.26-346.21c58.5,0,104.92-46.73,105.05-105.75.13-58.6-46.43-106-104.19-106-58.29,0-105.05,47-105.14,105.81C896.46,451.5,943.24,499.05,1000.83,499.05Zm106.74,108.39c-47.3-15.77-93.08-31-138.81-46.29S877.66,529,833.58,508.26l-68.37,93.48c1.51.73,2.6,1.36,3.76,1.8C789.76,611.4,810.32,620,831.4,627c64.94,21.51,130.09,42.37,195.12,63.62,5.44,1.77,8.91-.39,12.24-4.14,13.89-15.67,27.91-31.23,41.7-47C1089.42,629.19,1098.07,618.67,1107.57,607.44ZM815.86,496.31c-11.8-2.52-22.52-4.89-33.27-7.11-38.81-8-69.63,3.12-92.53,37.26-33.6,50.12-68.24,99.52-102.65,149.08-9.5,13.69-14,28.8-14.3,45.28-.64,31.35,14.42,57.16,29.13,84.35C662.38,694.05,742.07,598,815.86,496.31Zm241.71,203,26.26,8c18.66,5.66,37.28,11.36,57.12,10.88,14.55-.34,25.94-5.87,34.61-18.12q52.43-74.1,105.37-147.83a43.42,43.42,0,0,0,7.72-34.18,113.72,113.72,0,0,0-7.37-24.53c-9.43-21.83-19.53-43.36-29.37-65-1.64-3.61-3.33-7.21-5.67-12.27C1197.71,521.2,1135.58,615.14,1057.57,699.31Zm143.74,265.25h.2c-.27,4.94-1.12,9.93-.61,14.78.32,3,1.94,6.86,4.25,8.55,10.8,7.92,22.09,15.13,33.08,22.78,3.46,2.41,6.35,2.27,9.89.16,11.32-6.73,22.67-13.42,34.26-19.63,4.77-2.56,6.69-6,6.95-11.18.55-11.37,1.07-22.75,2.28-34.06.53-4.92-1.14-7.72-4.87-10.09-11.12-7-22.32-14-33.22-21.35-3.35-2.26-5.91-2.36-9.24-.5-11.83,6.63-23.91,12.81-35.51,19.81-2.76,1.66-5.19,5.63-5.76,8.9C1201.76,949.89,1201.8,957.27,1201.31,964.56Zm-35.78-54.36c8.87,3.94,16.69,7.75,24.78,10.81a12.24,12.24,0,0,0,8.88-.2c12.88-6.52,25.54-13.48,38.14-20.54a9.67,9.67,0,0,0,4.35-5.15c3.33-11.69,6.27-23.49,9.51-35.91-9.93-3.59-19.39-7.21-29-10.32-1.85-.6-4.62.29-6.48,1.36Q1198,860.41,1180.59,871c-1.9,1.16-4.18,2.87-4.8,4.81C1172.18,887,1169,898.34,1165.53,910.2Zm55.27-75.09c37.88,11.88,76,22.58,116.13,13.67C1300.22,826.91,1261.53,821.6,1220.8,835.11Zm-63.56,236.32c-3-13.77-5.71-27.17-8.94-40.42-1.92-7.86-3.78-16-7.32-23.13-4.91-9.93-11.36-19.08-17.21-28.52a27.62,27.62,0,0,0-3-3.39C1118.54,1014.48,1135.31,1058.43,1157.24,1071.43ZM1171,866.71l-1.8-1.19c-30.31,25.28-46.3,63.84-42.45,85.15Z"/></svg>