<svg width="212" height="211" viewBox="0 0 212 211" fill="none" xmlns="http://www.w3.org/2000/svg">
<path d="M68.5159 55.2457L73.4636 50.1511L73.8181 49.7861L74.1768 50.1468L161.113 137.551L161.464 137.904L161.113 138.256L156.756 142.628L172.873 159.308L203.323 129.669C203.324 129.668 203.325 129.667 203.326 129.667C208.858 124.119 211.54 118.611 211.5 113.139C211.459 107.664 208.693 102.108 203.074 96.4692L68.5159 55.2457ZM68.5159 55.2457L52.6284 39.1434L83.1205 8.54586C88.5397 3.10796 93.9094 0.469993 99.2344 0.500258C104.561 0.530532 109.963 3.2311 115.444 8.7313L115.444 8.73169L203.073 96.4688L68.5159 55.2457ZM143.908 155.696L138.961 160.791L138.606 161.156L138.247 160.795L50.9415 73.0111L50.5905 72.6581L50.9419 72.3055L55.2897 67.9427L38.2253 51.1485L8.65796 80.8182C3.12423 86.371 0.448202 91.8868 0.50076 97.3707C0.553342 102.857 3.33782 108.43 8.98098 114.092L143.908 155.696ZM143.908 155.696L159.87 171.873L129.378 202.47C123.959 207.908 118.585 210.541 113.249 210.5C107.91 210.458 102.49 207.739 96.9801 202.211L96.9798 202.21L8.98135 114.093L143.908 155.696Z" stroke="white"/>
</svg>
